<svg width="235" height="37" viewBox="0 0 235 37" fill="none" xmlns="http://www.w3.org/2000/svg">
<path d="M36.0772 17.1525L20.0839 1.34748C19.6562 0.924812 19.4423 0.713479 19.4279 0.53204C19.4153 0.374608 19.4798 0.22076 19.6013 0.1182C19.7414 0 20.0438 0 20.6487 0H36.6419C36.9215 0 37.0613 0 37.1681 0.0537701C37.262 0.101068 37.3384 0.176538 37.3863 0.269365C37.4407 0.374894 37.4407 0.51304 37.4407 0.789332V16.5944C37.4407 17.1921 37.4407 17.491 37.3211 17.6294C37.2173 17.7495 37.0616 17.8132 36.9023 17.8008C36.7187 17.7865 36.5049 17.5752 36.0772 17.1525Z" fill="white"/>
<path d="M7.87184 1.34748L1.36353 7.77919C0.935829 8.20185 0.721976 8.41319 0.538376 8.42747C0.37907 8.43986 0.223389 8.37613 0.119608 8.25605C0 8.11766 0 7.81879 0 7.22105V0.789333C0 0.513041 0 0.374894 0.0544105 0.269365C0.102271 0.176538 0.178641 0.101068 0.272573 0.0537701C0.37936 0 0.519151 0 0.798735 0H7.30705C7.91191 0 8.21434 0 8.35438 0.1182C8.47589 0.22076 8.54038 0.374608 8.52784 0.53204C8.51339 0.713479 8.29954 0.924811 7.87184 1.34748Z" fill="white"/>
<path d="M29.3192 35.6525L36.0772 28.9741C36.5049 28.5515 36.7187 28.3401 36.9023 28.3259C37.0616 28.3135 37.2173 28.3772 37.3211 28.4973C37.4407 28.6357 37.4407 28.9345 37.4407 29.5323V36.2107C37.4407 36.487 37.4407 36.6251 37.3863 36.7306C37.3384 36.8235 37.262 36.8989 37.1681 36.9462C37.0613 37 36.9215 37 36.6419 37H29.884C29.2792 37 28.9767 37 28.8367 36.8818C28.7152 36.7792 28.6507 36.6254 28.6632 36.468C28.6777 36.2865 28.8915 36.0752 29.3192 35.6525Z" fill="white"/>
<path d="M8.43663 37H0.798735C0.519151 37 0.37936 37 0.272573 36.9462C0.178641 36.8989 0.102271 36.8235 0.0544106 36.7306C0 36.6251 0 36.487 0 36.2107V28.416C0 28.1397 0 28.0016 0.0544106 27.896C0.102271 27.8032 0.178641 27.7277 0.272573 27.6804C0.37936 27.6267 0.519151 27.6267 0.798735 27.6267H8.43663C8.71622 27.6267 8.85601 27.6267 8.96279 27.6804C9.05673 27.7277 9.1331 27.8032 9.18096 27.896C9.23537 28.0016 9.23537 28.1397 9.23537 28.416V36.2107C9.23537 36.487 9.23537 36.6251 9.18096 36.7306C9.1331 36.8235 9.05673 36.8989 8.96279 36.9462C8.85601 37 8.71622 37 8.43663 37Z" fill="white"/>
<path d="M18.9468 27.8565L26.6354 35.66C27.0506 36.0814 27.2582 36.2921 27.2709 36.4726C27.2819 36.6292 27.2168 36.7816 27.0956 36.8831C26.9559 37 26.6583 37 26.0632 37H19.0512C18.9291 37 18.868 37 18.8106 36.9864C18.7596 36.9743 18.7109 36.9544 18.6663 36.9273C18.6159 36.8968 18.5727 36.8541 18.4864 36.7688L0.233944 18.7312C0.147609 18.6459 0.104435 18.6032 0.0735634 18.5534C0.0461924 18.5093 0.0260222 18.4612 0.0137932 18.4108C0 18.354 0 18.2937 0 18.173V11.0688C0 10.4612 0 10.1574 0.120907 10.0186C0.225786 9.89824 0.382901 9.83513 0.543019 9.84907C0.727607 9.86514 0.942073 10.0828 1.371 10.5182L9.0002 18.2613C9.08694 18.3494 9.13031 18.3934 9.18126 18.4249C9.22642 18.4528 9.27582 18.4734 9.32758 18.4859C9.38596 18.5 9.44813 18.5 9.57247 18.5H17.9216C18.2012 18.5 18.341 18.5 18.4478 18.5538C18.5417 18.6011 18.6181 18.6765 18.6659 18.7694C18.7203 18.8749 18.7203 19.013 18.7203 19.2893V27.3059C18.7203 27.4243 18.7203 27.4836 18.7337 27.5394C18.7455 27.5889 18.765 27.6364 18.7915 27.68C18.8214 27.7292 18.8632 27.7717 18.9468 27.8565Z" fill="white"/>
<path d="M58.0463 5.60823V26.9221H68.6208V30.9429H53.3729V5.60823H58.0463Z" fill="white"/>
<path d="M78.1316 31.4894C76.4946 31.4894 74.9962 31.073 73.6364 30.2402C72.2767 29.4074 71.1875 28.2428 70.369 26.7464C69.5505 25.237 69.1413 23.4739 69.1413 21.457C69.1413 19.3751 69.5439 17.5859 70.3492 16.0895C71.1677 14.5931 72.2569 13.448 73.6166 12.6543C74.9764 11.8606 76.4814 11.4637 78.1316 11.4637C79.663 11.4637 80.9832 11.7695 82.0921 12.381C83.2142 12.9796 84.112 13.7994 84.7852 14.8403C85.4717 15.8683 85.9338 17.0329 86.1714 18.3341C86.409 19.6353 86.4223 20.9756 86.211 22.3548H72.8641V19.8565H82.904L81.9931 20.4421C82.0327 19.8305 81.9997 19.2124 81.8941 18.5878C81.8017 17.9632 81.6168 17.3907 81.3396 16.8702C81.0624 16.3497 80.6663 15.9334 80.1515 15.6211C79.6498 15.2958 79.0029 15.1331 78.2108 15.1331C77.2603 15.1331 76.455 15.3673 75.7949 15.8358C75.1348 16.3042 74.6332 16.9418 74.2899 17.7486C73.9467 18.5553 73.775 19.4662 73.775 20.4811V22.3158C73.775 23.3828 73.9335 24.3262 74.2503 25.1459C74.5803 25.9657 75.0622 26.6098 75.6959 27.0782C76.3428 27.5467 77.1547 27.7809 78.1316 27.7809C79.0425 27.7809 79.8082 27.5727 80.4287 27.1563C81.0492 26.7399 81.4452 26.1153 81.6168 25.2826H86.3298C86.1318 26.5057 85.6632 27.5857 84.9239 28.5226C84.1978 29.4465 83.2538 30.1751 82.0921 30.7086C80.9304 31.2291 79.6102 31.4894 78.1316 31.4894Z" fill="white"/>
<path d="M102.222 30.9429L101.628 26.3366V18.7245C101.628 17.3972 101.351 16.4148 100.797 15.7772C100.255 15.1396 99.3311 14.8208 98.0241 14.8208C97.2717 14.8208 96.6182 14.9314 96.0637 15.1526C95.5092 15.3738 95.0802 15.6926 94.7765 16.109C94.4861 16.5124 94.3409 17.0069 94.3409 17.5924H89.2318C89.2318 16.1611 89.5817 14.9965 90.2814 14.0986C90.9811 13.1878 91.9844 12.5242 93.2914 12.1078C94.6115 11.6784 96.1891 11.4637 98.0241 11.4637C99.6876 11.4637 101.14 11.7304 102.381 12.2639C103.622 12.7844 104.585 13.5912 105.272 14.6842C105.958 15.7772 106.302 17.176 106.302 18.8806V30.9429H102.222ZM95.9251 31.4894C94.2749 31.4894 92.8953 31.2096 91.7864 30.6501C90.6906 30.0775 89.8655 29.3293 89.311 28.4055C88.7566 27.4816 88.4793 26.4797 88.4793 25.3997C88.4793 24.2026 88.7962 23.2006 89.4299 22.3939C90.0767 21.5741 90.9877 20.9625 92.1626 20.5592C93.3376 20.1428 94.7237 19.9346 96.3211 19.9346C97.3641 19.9346 98.3476 20.0127 99.2717 20.1688C100.209 20.325 101.14 20.5331 102.064 20.7934V23.4869C101.338 23.2527 100.546 23.0705 99.6876 22.9404C98.8295 22.8103 98.0242 22.7452 97.2717 22.7452C96.1627 22.7452 95.2518 22.9469 94.5389 23.3503C93.826 23.7537 93.4696 24.4368 93.4696 25.3997C93.4696 26.1023 93.76 26.7074 94.3409 27.2149C94.9218 27.7223 95.8459 27.9761 97.1132 27.9761C98.077 27.9761 98.8955 27.7679 99.5687 27.3515C100.242 26.9351 100.75 26.4146 101.094 25.79C101.45 25.1655 101.628 24.5409 101.628 23.9163H102.737C102.737 25.2826 102.48 26.5448 101.965 27.7028C101.45 28.8479 100.684 29.7653 99.6678 30.4549C98.6644 31.1445 97.4169 31.4894 95.9251 31.4894Z" fill="white"/>
<path d="M124.36 30.9429V19.8565C124.36 18.4512 124.017 17.3907 123.33 16.675C122.644 15.9594 121.746 15.6015 120.637 15.6015C119.7 15.6015 118.868 15.8553 118.142 16.3628C117.429 16.8702 116.868 17.6379 116.459 18.6659C116.049 19.6809 115.845 20.9495 115.845 22.472H114.3C114.3 20.0127 114.611 17.9698 115.231 16.3432C115.851 14.7037 116.729 13.4806 117.865 12.6738C119 11.8671 120.333 11.4637 121.865 11.4637C123.449 11.4637 124.769 11.815 125.825 12.5177C126.895 13.2073 127.693 14.1832 128.221 15.4454C128.763 16.7076 129.033 18.1779 129.033 19.8565V30.9429H124.36ZM111.171 30.9429V12.0102H115.251L115.845 15.7577V30.9429H111.171Z" fill="white"/>
<path d="M141.867 25.9072L148.442 5.60823H153.353L144.521 30.9429H139.61L130.897 5.60823H135.847L142.342 25.9072H141.867Z" fill="white"/>
<path d="M158.483 8.53596C157.572 8.53596 156.859 8.30174 156.344 7.8333C155.843 7.35185 155.592 6.68824 155.592 5.84245C155.592 5.02268 155.843 4.37208 156.344 3.89063C156.859 3.39617 157.572 3.14894 158.483 3.14894C159.381 3.14894 160.087 3.39617 160.602 3.89063C161.117 4.37208 161.374 5.02268 161.374 5.84245C161.374 6.68824 161.117 7.35185 160.602 7.8333C160.087 8.30174 159.381 8.53596 158.483 8.53596ZM156.146 30.9429V11.9321H160.82V30.9429H156.146Z" fill="white"/>
<path d="M173.934 31.4894C172.086 31.4894 170.495 31.2421 169.162 30.7477C167.841 30.2402 166.825 29.518 166.112 28.5812C165.399 27.6313 165.036 26.4927 165.023 25.1655H169.34C169.379 26.1023 169.756 26.7855 170.469 27.2149C171.181 27.6443 172.152 27.859 173.38 27.859C174.053 27.859 174.647 27.7614 175.162 27.5662C175.69 27.371 176.099 27.1043 176.39 26.766C176.68 26.4276 176.825 26.0503 176.825 25.6339C176.825 25.1004 176.627 24.684 176.231 24.3847C175.848 24.0724 175.228 23.7862 174.37 23.5259L170.172 22.0426C168.667 21.5091 167.511 20.8064 166.706 19.9346C165.901 19.0628 165.498 18.0218 165.498 16.8117C165.498 15.2112 166.231 13.923 167.696 12.9471C169.175 11.9581 171.148 11.4637 173.617 11.4637C176.073 11.4637 177.967 11.9972 179.3 13.0642C180.647 14.1182 181.34 15.4584 181.38 17.0849H176.984C176.918 16.4604 176.614 15.9659 176.073 15.6015C175.531 15.2372 174.713 15.055 173.617 15.055C172.627 15.055 171.848 15.2567 171.28 15.6601C170.726 16.0505 170.449 16.5124 170.449 17.0459C170.449 17.9437 171.228 18.6204 172.785 19.0758L177.34 20.7544C178.819 21.2488 179.967 21.8864 180.786 22.6671C181.604 23.4479 182.013 24.4368 182.013 25.6339C182.013 26.6358 181.67 27.5857 180.984 28.4836C180.31 29.3684 179.367 30.0906 178.152 30.6501C176.937 31.2096 175.531 31.4894 173.934 31.4894Z" fill="white"/>
<path d="M188.403 8.53596C187.493 8.53596 186.78 8.30174 186.265 7.8333C185.763 7.35185 185.512 6.68824 185.512 5.84245C185.512 5.02268 185.763 4.37208 186.265 3.89063C186.78 3.39617 187.493 3.14894 188.403 3.14894C189.301 3.14894 190.007 3.39617 190.522 3.89063C191.037 4.37208 191.295 5.02268 191.295 5.84245C191.295 6.68824 191.037 7.35185 190.522 7.8333C190.007 8.30174 189.301 8.53596 188.403 8.53596ZM186.067 30.9429V11.9321H190.74V30.9429H186.067Z" fill="white"/>
<path d="M204.25 31.4894C202.495 31.4894 200.904 31.1185 199.478 30.3768C198.065 29.6351 196.943 28.5291 196.112 27.0587C195.28 25.5753 194.864 23.7211 194.864 21.496C194.864 19.2319 195.28 17.3582 196.112 15.8748C196.943 14.3914 198.065 13.2854 199.478 12.5567C200.904 11.828 202.495 11.4637 204.25 11.4637C205.98 11.4637 207.544 11.828 208.944 12.5567C210.356 13.2854 211.478 14.3914 212.31 15.8748C213.142 17.3582 213.558 19.2319 213.558 21.496C213.558 23.7211 213.142 25.5753 212.31 27.0587C211.478 28.5291 210.356 29.6351 208.944 30.3768C207.544 31.1185 205.98 31.4894 204.25 31.4894ZM204.092 27.4686C205.016 27.4686 205.835 27.2474 206.548 26.805C207.274 26.3496 207.841 25.6794 208.251 24.7946C208.673 23.9098 208.884 22.8103 208.884 21.496C208.884 19.4922 208.482 17.9828 207.676 16.9678C206.884 15.9529 205.795 15.4454 204.409 15.4454C203.472 15.4454 202.64 15.6731 201.914 16.1285C201.188 16.571 200.613 17.2411 200.191 18.1389C199.782 19.0368 199.577 20.1558 199.577 21.496C199.577 23.4739 199.98 24.9638 200.785 25.9657C201.603 26.9676 202.706 27.4686 204.092 27.4686Z" fill="white"/>
<path d="M230.327 30.9429V19.8565C230.327 18.4512 229.983 17.3907 229.297 16.675C228.61 15.9594 227.713 15.6015 226.604 15.6015C225.666 15.6015 224.835 15.8553 224.109 16.3628C223.396 16.8702 222.835 17.6379 222.425 18.6659C222.016 19.6809 221.812 20.9495 221.812 22.472H220.267C220.267 20.0127 220.577 17.9698 221.198 16.3432C221.818 14.7037 222.696 13.4806 223.831 12.6738C224.967 11.8671 226.3 11.4637 227.831 11.4637C229.416 11.4637 230.736 11.815 231.792 12.5177C232.861 13.2073 233.66 14.1832 234.188 15.4454C234.729 16.7076 235 18.1779 235 19.8565V30.9429H230.327ZM217.138 30.9429V12.0102H221.217L221.812 15.7577V30.9429H217.138Z" fill="white"/>
</svg>
